<svg width="57" height="57" viewBox="0 0 57 57" fill="none" xmlns="http://www.w3.org/2000/svg">
<rect opacity="0.05" x="0.5" y="0.5" width="55.3262" height="55.3262" rx="27.6631" fill="black" stroke="#9197B3"/>
<path d="M25.8203 28.188C25.8203 29.3304 26.75 30.2601 27.8924 30.2601C29.0348 30.2601 29.9645 29.3304 29.9645 28.188C29.9645 27.0456 29.0348 26.1159 27.8924 26.1159C26.75 26.1159 25.8203 27.0456 25.8203 28.188ZM25.8203 35.0949C25.8203 36.2373 26.75 37.167 27.8924 37.167C29.0348 37.167 29.9645 36.2373 29.9645 35.0949C29.9645 33.9525 29.0348 33.0228 27.8924 33.0228C26.75 33.0228 25.8203 33.9525 25.8203 35.0949ZM25.8203 21.2811C25.8203 22.4235 26.75 23.3531 27.8924 23.3531C29.0348 23.3531 29.9645 22.4235 29.9645 21.2811C29.9645 20.1387 29.0348 19.209 27.8924 19.209C26.75 19.209 25.8203 20.1387 25.8203 21.2811Z" fill="black"/>
</svg>
